{
	"asset":{
		"generator":"Khronos glTF Blender I/O v3.5.30",
		"version":"2.0"
	},
	"scene":0,
	"scenes":[
		{
			"name":"Scene",
			"nodes":[
				0
			]
		}
	],
	"nodes":[
		{
			"mesh":0,
			"name":"Cube"
		}
	],
	"materials":[
		{
			"doubleSided":true,
			"name":"Material",
			"pbrMetallicRoughness":{
				"baseColorTexture":{
					"index":0
				},
				"metallicFactor":0,
				"roughnessFactor":0.5
			}
		}
	],
	"meshes":[
		{
			"name":"Cube",
			"primitives":[
				{
					"attributes":{
						"POSITION":0,
						"TEXCOORD_0":1,
						"NORMAL":2
					},
					"indices":3,
					"material":0
				}
			]
		}
	],
	"textures":[
		{
			"sampler":0,
			"source":0
		}
	],
	"images":[
		{
			"bufferView":4,
			"mimeType":"image/png",
			"name":"tape Base Color"
		}
	],
	"accessors":[
		{
			"bufferView":0,
			"componentType":5126,
			"count":784,
			"max":[
				0.5,
				0.07500001788139343,
				0.3499999940395355
			],
			"min":[
				-0.5,
				-0.07500001788139343,
				-0.3499999940395355
			],
			"type":"VEC3"
		},
		{
			"bufferView":1,
			"componentType":5126,
			"count":784,
			"type":"VEC2"
		},
		{
			"bufferView":2,
			"componentType":5126,
			"count":784,
			"type":"VEC3"
		},
		{
			"bufferView":3,
			"componentType":5123,
			"count":1863,
			"type":"SCALAR"
		}
	],
	"bufferViews":[
		{
			"buffer":0,
			"byteLength":9408,
			"byteOffset":0,
			"target":34962
		},
		{
			"buffer":0,
			"byteLength":6272,
			"byteOffset":9408,
			"target":34962
		},
		{
			"buffer":0,
			"byteLength":9408,
			"byteOffset":15680,
			"target":34962
		},
		{
			"buffer":0,
			"byteLength":3726,
			"byteOffset":25088,
			"target":34963
		},
		{
			"buffer":0,
			"byteLength":90729,
			"byteOffset":28816
		}
	],
	"samplers":[
		{
			"magFilter":9729,
			"minFilter":9987
		}
	],
	"buffers":[
		{
			"byteLength":119548,
			"uri":"data:application/octet-stream;base64,"
		}
	]
}
